G04 #@! TF.GenerationSoftware,KiCad,Pcbnew,5.1.4+dfsg1-1*
G04 #@! TF.CreationDate,2019-09-11T10:23:55+02:00*
G04 #@! TF.ProjectId,kindle-adapter,6b696e64-6c65-42d6-9164-61707465722e,rev?*
G04 #@! TF.SameCoordinates,Original*
G04 #@! TF.FileFunction,Legend,Bot*
G04 #@! TF.FilePolarity,Positive*
%FSLAX46Y46*%
G04 Gerber Fmt 4.6, Leading zero omitted, Abs format (unit mm)*
G04 Created by KiCad (PCBNEW 5.1.4+dfsg1-1) date 2019-09-11 10:23:55*
%MOMM*%
%LPD*%
G04 APERTURE LIST*
%ADD10C,0.150000*%
G04 APERTURE END LIST*
D10*
X156368571Y-91225714D02*
X156130476Y-91892380D01*
X155892380Y-91225714D01*
X155320952Y-90892380D02*
X155225714Y-90892380D01*
X155130476Y-90940000D01*
X155082857Y-90987619D01*
X155035238Y-91082857D01*
X154987619Y-91273333D01*
X154987619Y-91511428D01*
X155035238Y-91701904D01*
X155082857Y-91797142D01*
X155130476Y-91844761D01*
X155225714Y-91892380D01*
X155320952Y-91892380D01*
X155416190Y-91844761D01*
X155463809Y-91797142D01*
X155511428Y-91701904D01*
X155559047Y-91511428D01*
X155559047Y-91273333D01*
X155511428Y-91082857D01*
X155463809Y-90987619D01*
X155416190Y-90940000D01*
X155320952Y-90892380D01*
X154559047Y-91797142D02*
X154511428Y-91844761D01*
X154559047Y-91892380D01*
X154606666Y-91844761D01*
X154559047Y-91797142D01*
X154559047Y-91892380D01*
X153559047Y-91892380D02*
X154130476Y-91892380D01*
X153844761Y-91892380D02*
X153844761Y-90892380D01*
X153940000Y-91035238D01*
X154035238Y-91130476D01*
X154130476Y-91178095D01*
X156113809Y-89352380D02*
X156113809Y-88352380D01*
X155542380Y-89352380D02*
X155970952Y-88780952D01*
X155542380Y-88352380D02*
X156113809Y-88923809D01*
X155113809Y-89352380D02*
X155113809Y-88685714D01*
X155113809Y-88352380D02*
X155161428Y-88400000D01*
X155113809Y-88447619D01*
X155066190Y-88400000D01*
X155113809Y-88352380D01*
X155113809Y-88447619D01*
X154637619Y-88685714D02*
X154637619Y-89352380D01*
X154637619Y-88780952D02*
X154590000Y-88733333D01*
X154494761Y-88685714D01*
X154351904Y-88685714D01*
X154256666Y-88733333D01*
X154209047Y-88828571D01*
X154209047Y-89352380D01*
X153304285Y-89352380D02*
X153304285Y-88352380D01*
X153304285Y-89304761D02*
X153399523Y-89352380D01*
X153590000Y-89352380D01*
X153685238Y-89304761D01*
X153732857Y-89257142D01*
X153780476Y-89161904D01*
X153780476Y-88876190D01*
X153732857Y-88780952D01*
X153685238Y-88733333D01*
X153590000Y-88685714D01*
X153399523Y-88685714D01*
X153304285Y-88733333D01*
X152685238Y-89352380D02*
X152780476Y-89304761D01*
X152828095Y-89209523D01*
X152828095Y-88352380D01*
X151923333Y-89304761D02*
X152018571Y-89352380D01*
X152209047Y-89352380D01*
X152304285Y-89304761D01*
X152351904Y-89209523D01*
X152351904Y-88828571D01*
X152304285Y-88733333D01*
X152209047Y-88685714D01*
X152018571Y-88685714D01*
X151923333Y-88733333D01*
X151875714Y-88828571D01*
X151875714Y-88923809D01*
X152351904Y-89019047D01*
X150685238Y-88352380D02*
X150685238Y-89161904D01*
X150637619Y-89257142D01*
X150590000Y-89304761D01*
X150494761Y-89352380D01*
X150304285Y-89352380D01*
X150209047Y-89304761D01*
X150161428Y-89257142D01*
X150113809Y-89161904D01*
X150113809Y-88352380D01*
X149685238Y-89066666D02*
X149209047Y-89066666D01*
X149780476Y-89352380D02*
X149447142Y-88352380D01*
X149113809Y-89352380D01*
X148209047Y-89352380D02*
X148542380Y-88876190D01*
X148780476Y-89352380D02*
X148780476Y-88352380D01*
X148399523Y-88352380D01*
X148304285Y-88400000D01*
X148256666Y-88447619D01*
X148209047Y-88542857D01*
X148209047Y-88685714D01*
X148256666Y-88780952D01*
X148304285Y-88828571D01*
X148399523Y-88876190D01*
X148780476Y-88876190D01*
X147923333Y-88352380D02*
X147351904Y-88352380D01*
X147637619Y-89352380D02*
X147637619Y-88352380D01*
X145828095Y-89352380D02*
X145828095Y-88828571D01*
X145875714Y-88733333D01*
X145970952Y-88685714D01*
X146161428Y-88685714D01*
X146256666Y-88733333D01*
X145828095Y-89304761D02*
X145923333Y-89352380D01*
X146161428Y-89352380D01*
X146256666Y-89304761D01*
X146304285Y-89209523D01*
X146304285Y-89114285D01*
X146256666Y-89019047D01*
X146161428Y-88971428D01*
X145923333Y-88971428D01*
X145828095Y-88923809D01*
X144923333Y-89352380D02*
X144923333Y-88352380D01*
X144923333Y-89304761D02*
X145018571Y-89352380D01*
X145209047Y-89352380D01*
X145304285Y-89304761D01*
X145351904Y-89257142D01*
X145399523Y-89161904D01*
X145399523Y-88876190D01*
X145351904Y-88780952D01*
X145304285Y-88733333D01*
X145209047Y-88685714D01*
X145018571Y-88685714D01*
X144923333Y-88733333D01*
X144018571Y-89352380D02*
X144018571Y-88828571D01*
X144066190Y-88733333D01*
X144161428Y-88685714D01*
X144351904Y-88685714D01*
X144447142Y-88733333D01*
X144018571Y-89304761D02*
X144113809Y-89352380D01*
X144351904Y-89352380D01*
X144447142Y-89304761D01*
X144494761Y-89209523D01*
X144494761Y-89114285D01*
X144447142Y-89019047D01*
X144351904Y-88971428D01*
X144113809Y-88971428D01*
X144018571Y-88923809D01*
X143542380Y-88685714D02*
X143542380Y-89685714D01*
X143542380Y-88733333D02*
X143447142Y-88685714D01*
X143256666Y-88685714D01*
X143161428Y-88733333D01*
X143113809Y-88780952D01*
X143066190Y-88876190D01*
X143066190Y-89161904D01*
X143113809Y-89257142D01*
X143161428Y-89304761D01*
X143256666Y-89352380D01*
X143447142Y-89352380D01*
X143542380Y-89304761D01*
X142780476Y-88685714D02*
X142399523Y-88685714D01*
X142637619Y-88352380D02*
X142637619Y-89209523D01*
X142590000Y-89304761D01*
X142494761Y-89352380D01*
X142399523Y-89352380D01*
X141685238Y-89304761D02*
X141780476Y-89352380D01*
X141970952Y-89352380D01*
X142066190Y-89304761D01*
X142113809Y-89209523D01*
X142113809Y-88828571D01*
X142066190Y-88733333D01*
X141970952Y-88685714D01*
X141780476Y-88685714D01*
X141685238Y-88733333D01*
X141637619Y-88828571D01*
X141637619Y-88923809D01*
X142113809Y-89019047D01*
X141209047Y-89352380D02*
X141209047Y-88685714D01*
X141209047Y-88876190D02*
X141161428Y-88780952D01*
X141113809Y-88733333D01*
X141018571Y-88685714D01*
X140923333Y-88685714D01*
M02*
