G04 #@! TF.GenerationSoftware,KiCad,Pcbnew,5.1.4+dfsg1-1*
G04 #@! TF.CreationDate,2019-09-11T10:23:55+02:00*
G04 #@! TF.ProjectId,kindle-adapter,6b696e64-6c65-42d6-9164-61707465722e,rev?*
G04 #@! TF.SameCoordinates,Original*
G04 #@! TF.FileFunction,Soldermask,Top*
G04 #@! TF.FilePolarity,Negative*
%FSLAX46Y46*%
G04 Gerber Fmt 4.6, Leading zero omitted, Abs format (unit mm)*
G04 Created by KiCad (PCBNEW 5.1.4+dfsg1-1) date 2019-09-11 10:23:55*
%MOMM*%
%LPD*%
G04 APERTURE LIST*
%ADD10C,0.100000*%
G04 APERTURE END LIST*
D10*
G36*
X160496000Y-89376000D02*
G01*
X160470025Y-89376000D01*
X160445639Y-89378402D01*
X160422190Y-89385515D01*
X160400579Y-89397066D01*
X160381637Y-89412611D01*
X160366092Y-89431553D01*
X160354541Y-89453164D01*
X160347428Y-89476613D01*
X160345026Y-89500999D01*
X160347428Y-89525385D01*
X160354541Y-89548834D01*
X160373396Y-89580292D01*
X160417694Y-89634269D01*
X160461894Y-89716961D01*
X160489113Y-89806688D01*
X160498303Y-89900000D01*
X160489113Y-89993312D01*
X160461894Y-90083039D01*
X160417694Y-90165731D01*
X160358211Y-90238211D01*
X160285731Y-90297694D01*
X160285726Y-90297697D01*
X160278808Y-90303374D01*
X160261481Y-90320701D01*
X160247867Y-90341075D01*
X160238490Y-90363714D01*
X160233709Y-90387747D01*
X160233709Y-90412251D01*
X160238489Y-90436285D01*
X160247866Y-90458924D01*
X160261480Y-90479298D01*
X160278808Y-90496626D01*
X160285726Y-90502303D01*
X160285731Y-90502306D01*
X160358211Y-90561789D01*
X160417694Y-90634269D01*
X160461894Y-90716961D01*
X160489113Y-90806688D01*
X160498303Y-90900000D01*
X160489113Y-90993312D01*
X160461894Y-91083039D01*
X160417694Y-91165731D01*
X160358211Y-91238211D01*
X160285731Y-91297694D01*
X160285726Y-91297697D01*
X160278808Y-91303374D01*
X160261481Y-91320701D01*
X160247867Y-91341075D01*
X160238490Y-91363714D01*
X160233709Y-91387747D01*
X160233709Y-91412251D01*
X160238489Y-91436285D01*
X160247866Y-91458924D01*
X160261480Y-91479298D01*
X160278808Y-91496626D01*
X160285726Y-91502303D01*
X160285731Y-91502306D01*
X160358211Y-91561789D01*
X160417694Y-91634269D01*
X160461894Y-91716961D01*
X160489113Y-91806688D01*
X160498303Y-91900000D01*
X160489113Y-91993312D01*
X160461894Y-92083039D01*
X160417694Y-92165731D01*
X160358211Y-92238211D01*
X160285731Y-92297694D01*
X160203039Y-92341894D01*
X160113312Y-92369113D01*
X160043384Y-92376000D01*
X159996616Y-92376000D01*
X159926688Y-92369113D01*
X159836961Y-92341894D01*
X159754269Y-92297694D01*
X159681789Y-92238211D01*
X159622306Y-92165731D01*
X159578106Y-92083039D01*
X159550887Y-91993312D01*
X159541697Y-91900000D01*
X159550887Y-91806688D01*
X159578106Y-91716961D01*
X159622306Y-91634269D01*
X159681789Y-91561789D01*
X159754269Y-91502306D01*
X159754274Y-91502303D01*
X159761192Y-91496626D01*
X159778519Y-91479299D01*
X159792133Y-91458925D01*
X159801510Y-91436286D01*
X159806291Y-91412253D01*
X159806291Y-91387749D01*
X159801511Y-91363715D01*
X159792134Y-91341076D01*
X159778520Y-91320702D01*
X159761192Y-91303374D01*
X159754274Y-91297697D01*
X159754269Y-91297694D01*
X159681789Y-91238211D01*
X159622306Y-91165731D01*
X159578106Y-91083039D01*
X159550887Y-90993312D01*
X159541697Y-90900000D01*
X159550887Y-90806688D01*
X159578106Y-90716961D01*
X159622306Y-90634269D01*
X159681789Y-90561789D01*
X159754269Y-90502306D01*
X159754274Y-90502303D01*
X159761192Y-90496626D01*
X159778519Y-90479299D01*
X159792133Y-90458925D01*
X159801510Y-90436286D01*
X159806291Y-90412253D01*
X159806291Y-90387749D01*
X159801511Y-90363715D01*
X159792134Y-90341076D01*
X159778520Y-90320702D01*
X159761192Y-90303374D01*
X159754274Y-90297697D01*
X159754269Y-90297694D01*
X159681789Y-90238211D01*
X159622306Y-90165731D01*
X159578106Y-90083039D01*
X159550887Y-89993312D01*
X159541697Y-89900000D01*
X159550887Y-89806688D01*
X159578106Y-89716961D01*
X159622306Y-89634269D01*
X159666606Y-89580289D01*
X159680214Y-89559923D01*
X159689592Y-89537284D01*
X159694372Y-89513251D01*
X159694372Y-89488747D01*
X159689592Y-89464714D01*
X159680214Y-89442075D01*
X159666600Y-89421700D01*
X159649273Y-89404373D01*
X159628899Y-89390760D01*
X159606260Y-89381382D01*
X159569975Y-89376000D01*
X159544000Y-89376000D01*
X159544000Y-88424000D01*
X160496000Y-88424000D01*
X160496000Y-89376000D01*
X160496000Y-89376000D01*
G37*
G36*
X141080443Y-90545519D02*
G01*
X141146627Y-90552037D01*
X141316466Y-90603557D01*
X141472991Y-90687222D01*
X141508729Y-90716552D01*
X141610186Y-90799814D01*
X141692405Y-90900000D01*
X141722778Y-90937009D01*
X141806443Y-91093534D01*
X141857963Y-91263373D01*
X141875359Y-91440000D01*
X141857963Y-91616627D01*
X141806443Y-91786466D01*
X141722778Y-91942991D01*
X141693448Y-91978729D01*
X141610186Y-92080186D01*
X141508729Y-92163448D01*
X141472991Y-92192778D01*
X141472989Y-92192779D01*
X141387993Y-92238211D01*
X141316466Y-92276443D01*
X141146627Y-92327963D01*
X141080443Y-92334481D01*
X141014260Y-92341000D01*
X140925740Y-92341000D01*
X140859557Y-92334481D01*
X140793373Y-92327963D01*
X140623534Y-92276443D01*
X140552008Y-92238211D01*
X140467011Y-92192779D01*
X140467009Y-92192778D01*
X140431271Y-92163448D01*
X140329814Y-92080186D01*
X140246552Y-91978729D01*
X140217222Y-91942991D01*
X140133557Y-91786466D01*
X140082037Y-91616627D01*
X140064641Y-91440000D01*
X140082037Y-91263373D01*
X140133557Y-91093534D01*
X140217222Y-90937009D01*
X140247595Y-90900000D01*
X140329814Y-90799814D01*
X140431271Y-90716552D01*
X140467009Y-90687222D01*
X140623534Y-90603557D01*
X140793373Y-90552037D01*
X140859557Y-90545519D01*
X140925740Y-90539000D01*
X141014260Y-90539000D01*
X141080443Y-90545519D01*
X141080443Y-90545519D01*
G37*
G36*
X138540443Y-90545519D02*
G01*
X138606627Y-90552037D01*
X138776466Y-90603557D01*
X138932991Y-90687222D01*
X138968729Y-90716552D01*
X139070186Y-90799814D01*
X139152405Y-90900000D01*
X139182778Y-90937009D01*
X139266443Y-91093534D01*
X139317963Y-91263373D01*
X139335359Y-91440000D01*
X139317963Y-91616627D01*
X139266443Y-91786466D01*
X139182778Y-91942991D01*
X139153448Y-91978729D01*
X139070186Y-92080186D01*
X138968729Y-92163448D01*
X138932991Y-92192778D01*
X138932989Y-92192779D01*
X138847993Y-92238211D01*
X138776466Y-92276443D01*
X138606627Y-92327963D01*
X138540443Y-92334481D01*
X138474260Y-92341000D01*
X138385740Y-92341000D01*
X138319557Y-92334481D01*
X138253373Y-92327963D01*
X138083534Y-92276443D01*
X138012008Y-92238211D01*
X137927011Y-92192779D01*
X137927009Y-92192778D01*
X137891271Y-92163448D01*
X137789814Y-92080186D01*
X137706552Y-91978729D01*
X137677222Y-91942991D01*
X137593557Y-91786466D01*
X137542037Y-91616627D01*
X137524641Y-91440000D01*
X137542037Y-91263373D01*
X137593557Y-91093534D01*
X137677222Y-90937009D01*
X137707595Y-90900000D01*
X137789814Y-90799814D01*
X137891271Y-90716552D01*
X137927009Y-90687222D01*
X138083534Y-90603557D01*
X138253373Y-90552037D01*
X138319557Y-90545519D01*
X138385740Y-90539000D01*
X138474260Y-90539000D01*
X138540443Y-90545519D01*
X138540443Y-90545519D01*
G37*
G36*
X136000443Y-90545519D02*
G01*
X136066627Y-90552037D01*
X136236466Y-90603557D01*
X136392991Y-90687222D01*
X136428729Y-90716552D01*
X136530186Y-90799814D01*
X136612405Y-90900000D01*
X136642778Y-90937009D01*
X136726443Y-91093534D01*
X136777963Y-91263373D01*
X136795359Y-91440000D01*
X136777963Y-91616627D01*
X136726443Y-91786466D01*
X136642778Y-91942991D01*
X136613448Y-91978729D01*
X136530186Y-92080186D01*
X136428729Y-92163448D01*
X136392991Y-92192778D01*
X136392989Y-92192779D01*
X136307993Y-92238211D01*
X136236466Y-92276443D01*
X136066627Y-92327963D01*
X136000443Y-92334481D01*
X135934260Y-92341000D01*
X135845740Y-92341000D01*
X135779557Y-92334481D01*
X135713373Y-92327963D01*
X135543534Y-92276443D01*
X135472008Y-92238211D01*
X135387011Y-92192779D01*
X135387009Y-92192778D01*
X135351271Y-92163448D01*
X135249814Y-92080186D01*
X135166552Y-91978729D01*
X135137222Y-91942991D01*
X135053557Y-91786466D01*
X135002037Y-91616627D01*
X134984641Y-91440000D01*
X135002037Y-91263373D01*
X135053557Y-91093534D01*
X135137222Y-90937009D01*
X135167595Y-90900000D01*
X135249814Y-90799814D01*
X135351271Y-90716552D01*
X135387009Y-90687222D01*
X135543534Y-90603557D01*
X135713373Y-90552037D01*
X135779557Y-90545519D01*
X135845740Y-90539000D01*
X135934260Y-90539000D01*
X136000443Y-90545519D01*
X136000443Y-90545519D01*
G37*
G36*
X134251000Y-92341000D02*
G01*
X132449000Y-92341000D01*
X132449000Y-90539000D01*
X134251000Y-90539000D01*
X134251000Y-92341000D01*
X134251000Y-92341000D01*
G37*
M02*
